<!-- Generated by IcoMoon.io -->
<svg version="1.1" xmlns="http://www.w3.org/2000/svg" width="32" height="32" viewBox="0 0 32 32">
<title>svg2</title>
<path fill="#00a5ea" stroke="#061e7d" stroke-linejoin="miter" stroke-linecap="butt" stroke-miterlimit="4" stroke-width="0.8421" d="M28.211 13.979c0 6.744-5.467 12.211-12.211 12.211s-12.211-5.467-12.211-12.211c0-6.744 5.467-12.211 12.211-12.211s12.211 5.467 12.211 12.211z"></path>
<path fill="#061e7d" d="M10.883 11.486l1.663-0.702 0.448-0.447 0.64-0.574 0.767-1.659 0.768-1.85 0.64-0.191h0.576l0.576 0.505 0.192 0.758-0.192 0.97-1.343 2.743 1.535-0.128 1.087-0.128h1.087l1.087 0.128 0.448 0.128 0.128 0.245v0.421l-0.128 0.421-0.512 0.316-0.384 0.128-0.32 0.128 0.32 0.064 0.64 0.255 0.192 0.128 0.192 0.319v0.255l-0.064 0.383-0.32 0.255-0.831 0.064 0.448 0.255 0.448 0.128 0.192 0.255v0.383l-0.064 0.447-0.128 0.255-0.256 0.128-0.767 0.319 0.32 0.168 0.384 0.253 0.256 0.337v0.337l-0.058 0.421-0.326 0.421h-1.105l-4.267-0.406-3.837 0.128-0.128-6.762z"></path>
</svg>
