<!-- Generated by IcoMoon.io -->
<svg version="1.1" xmlns="http://www.w3.org/2000/svg" width="32" height="32" viewBox="0 0 32 32">
<title>SVG5</title>
<path fill="#00a5ea" stroke="#061e7d" stroke-linejoin="miter" stroke-linecap="butt" stroke-miterlimit="4" stroke-width="0.8421" d="M28.211 13.979c0 6.744-5.467 12.211-12.211 12.211s-12.211-5.467-12.211-12.211c0-6.744 5.467-12.211 12.211-12.211s12.211 5.467 12.211 12.211z"></path>
<path fill="#061e7d" d="M10.568 18.628l-0.783-0-0.348-0.169-0.171-0.262 0.004-0.665 0.006-1.096 0.013-2.361 0.013-2.361 0.006-1.096 0.005-0.928 0.211-0.253 0.174-0.084 0.174-0.077 0.348-0.007 0.403 0.007-0.053 9.353z"></path>
<path fill="#061e7d" d="M19.713 9.284l1.767-0.004 0.324 0.004 0.255 0.081 0.255 0.168 0.255 0.337v7.831l-0.085 0.505-0.3 0.251-0.392 0.085-0.392 0.078-0.785 0.008-0.909-0.005 0.008-9.341z"></path>
<path fill="#061e7d" d="M10.61 9.28h9.095v1.831l-0.168-0.114-0.253-0.172-0.337-0.154-0.421-0.154h-6.737l-0.589 0.154-0.259 0.136-0.165 0.153-0.165 0.174v-1.853z"></path>
<path fill="#061e7d" d="M19.705 18.608l-9.163-0.001 0.017-1.831 0.169 0.116 0.254 0.175 0.339 0.158 0.424 0.158 6.812 0.064 0.597-0.149 0.263-0.134 0.169-0.151 0.169-0.173-0.050 1.767z"></path>
<path fill="#00a5ea" d="M20.547 10.459h0.168v-0.168h0.337v0.168h0.168v0.253h0.253v0.589h-0.253v0.168h-0.168v0.168h-0.337v-0.168h-0.168v-0.168h-0.253v-0.589h0.253v-0.253z"></path>
<path fill="#00a5ea" d="M20.631 12.48h0.168v-0.168h0.337v0.168h0.168v0.253h0.253v0.589h-0.253v0.168h-0.168v0.168h-0.337v-0.168h-0.168v-0.168h-0.253v-0.589h0.253v-0.253z"></path>
<path fill="#061e7d" d="M11.789 11.975h2.863v0.505h-2.863v-0.505z"></path>
<path fill="#061e7d" d="M15.326 11.975h2.021v0.505h-2.021v-0.505z"></path>
<path fill="#061e7d" d="M15.831 13.659h1.516v0.337h0.253v1.684h-0.253v0.337h-1.516v-0.337h0.926v-0.253h0.337v-1.179h-0.337v-0.253h-0.926v-0.337z"></path>
<path fill="#061e7d" d="M13.018 16.006l-0.019-3.52 0.505-0.003 0.019 3.52-0.505 0.003z"></path>
<path fill="#061e7d" d="M15.346 16.005l-0.020-3.555 0.505-0.003 0.020 3.555-0.505 0.003z"></path>
</svg>
