<svg aria-hidden="true" style="position: absolute; width: 0; height: 0; overflow: hidden;" version="1.1" xmlns="http://www.w3.org/2000/svg" xmlns:xlink="http://www.w3.org/1999/xlink">
<defs>
<symbol id="icon-Logo" viewBox="0 0 32 32">
<path fill="#104eab" style="fill: var(--color1, #104eab); stroke: var(--color2, #787777)" stroke="#787777" stroke-linejoin="miter" stroke-linecap="butt" stroke-miterlimit="4" stroke-width="0.4" d="M26.402 14.013l0.044-0.025-16.173-8.569 2.393-0.977 18.043 9.714-6.995 3.682-2.22-1.087 4.907-2.739z"></path>
<path fill="#104eab" style="fill: var(--color1, #104eab); stroke: var(--color2, #787777)" stroke="#787777" stroke-linejoin="miter" stroke-linecap="butt" stroke-miterlimit="4" stroke-width="0.4" d="M25.791 21.184l0.053-0.025-22.062-10.44 2.215-1.389 24.548 11.829-15.565 7.417v-2.283l10.811-5.109z"></path>
<path fill="#104eab" style="fill: var(--color1, #104eab); stroke: var(--color2, #787777)" stroke="#787777" stroke-linejoin="miter" stroke-linecap="butt" stroke-miterlimit="4" stroke-width="0.4" d="M7.745 23.529l9.274-4.341 2.043 1.167-11.317 5.79v-2.616z"></path>
<path fill="#b8c2ca" style="fill: var(--color3, #b8c2ca); stroke: var(--color2, #787777)" stroke="#787777" stroke-linejoin="miter" stroke-linecap="butt" stroke-miterlimit="4" stroke-width="0.4" d="M5.553 13.738v15.812l-1.861-1.001v-17.809l22.028 10.426-2.606 1.253-17.561-8.727v0.047z"></path>
<path fill="#b8c2ca" style="fill: var(--color3, #b8c2ca); stroke: var(--color2, #787777)" stroke="#787777" stroke-linejoin="miter" stroke-linecap="butt" stroke-miterlimit="4" stroke-width="0.4" d="M12.338 8.656v12.716l-2.101 0.95v-16.885l16.15 8.553-1.862 1.028-12.187-6.41v0.048z"></path>
<path fill="#061e7d" style="fill: var(--color4, #061e7d)" d="M12.338 8.6l2.732 1.424v10.052l-2.702 1.284-0.030-12.761z"></path>
<path fill="#061e7d" style="fill: var(--color4, #061e7d); stroke: var(--color2, #787777)" stroke="#787777" stroke-linejoin="miter" stroke-linecap="butt" stroke-miterlimit="4" stroke-width="0.4" d="M30.589 23.215l-17.891 8.683v-5.969l2.281-1.17v3.88l15.61-7.428v2.004z"></path>
<path fill="#b8c2ca" style="fill: var(--color3, #b8c2ca); stroke: var(--color2, #787777)" stroke="#787777" stroke-linejoin="miter" stroke-linecap="butt" stroke-miterlimit="4" stroke-width="0.4" d="M10.777 31.476v-4.569l1.861-0.92v5.949l-1.861-0.46z"></path>
<path fill="#061e7d" style="fill: var(--color4, #061e7d); stroke: var(--color2, #787777)" stroke="#787777" stroke-linejoin="miter" stroke-linecap="butt" stroke-miterlimit="4" stroke-width="0.4" d="M7.729 26.189l11.273-5.745 2.188 1.086-15.577 7.994v-15.739l2.071 1.004v11.423l0.044-0.023z"></path>
<path fill="#061e7d" style="fill: var(--color4, #061e7d); stroke: var(--color2, #787777)" stroke="#787777" stroke-linejoin="miter" stroke-linecap="butt" stroke-miterlimit="4" stroke-width="0.4" d="M26.026 18.928l-2.219-1.086 6.904-3.638 0.117 2.366-4.802 2.358z"></path>
</symbol>
<symbol id="icon-menu" viewBox="0 0 32 32">
<path fill="#00a5ea" style="fill: var(--color5, #00a5ea); stroke: var(--color4, #061e7d)" stroke="#061e7d" stroke-linejoin="miter" stroke-linecap="butt" stroke-miterlimit="4" stroke-width="1.1852" d="M5.926 0.593h20.148c2.946 0 5.333 2.388 5.333 5.333v20.148c0 2.946-2.388 5.333-5.333 5.333h-20.148c-2.946 0-5.333-2.388-5.333-5.333v-20.148c0-2.946 2.388-5.333 5.333-5.333z"></path>
<path fill="#061e7d" style="fill: var(--color4, #061e7d)" d="M7.111 7.704h17.778c0.327 0 0.593 0.265 0.593 0.593v1.778c0 0.327-0.265 0.593-0.593 0.593h-17.778c-0.327 0-0.593-0.265-0.593-0.593v-1.778c0-0.327 0.265-0.593 0.593-0.593z"></path>
<path fill="#061e7d" style="fill: var(--color4, #061e7d)" d="M7.111 13.63h17.778c0.327 0 0.593 0.265 0.593 0.593v1.778c0 0.327-0.265 0.593-0.593 0.593h-17.778c-0.327 0-0.593-0.265-0.593-0.593v-1.778c0-0.327 0.265-0.593 0.593-0.593z"></path>
<path fill="#061e7d" style="fill: var(--color4, #061e7d)" d="M7.111 19.556h17.778c0.327 0 0.593 0.265 0.593 0.593v1.778c0 0.327-0.265 0.593-0.593 0.593h-17.778c-0.327 0-0.593-0.265-0.593-0.593v-1.778c0-0.327 0.265-0.593 0.593-0.593z"></path>
</symbol>
<symbol id="icon-phone" viewBox="0 0 32 32">
<path fill="#061e7d" style="fill: var(--color4, #061e7d)" d="M17.987 21.719l1.228 0.078 0.692-1.189 2.535-1.073 7.673 5.419-0.036 1.642-0.731 1.804-1.040 1.139-1 0.787-0.846 0.444-2.917 0.551-2.457-0.156-2.418-0.77-2.055-0.856-2.115-1.458-1.738-1.76-4.602-5.224-2.007-2.635-2.462-4.308-1.051-3.273-0.591-3.673 0.239-1.885 0.818-1.812 0.584-1.049 1.231-1.231 1.231-0.615 1.231-0.177h2.051l2.271 3.617 0.536 1.267 0.52 1.27 0.981 2.462-1.5 1.713-1.577 0.749 0.418 2.366 6.903 7.837z"></path>
</symbol>
<symbol id="icon-svg1" viewBox="0 0 32 32">
<path fill="#00a5ea" style="fill: var(--color5, #00a5ea); stroke: var(--color4, #061e7d)" stroke="#061e7d" stroke-linejoin="miter" stroke-linecap="butt" stroke-miterlimit="4" stroke-width="0.8421" d="M28.211 13.979c0 6.744-5.467 12.211-12.211 12.211s-12.211-5.467-12.211-12.211c0-6.744 5.467-12.211 12.211-12.211s12.211 5.467 12.211 12.211z"></path>
<path fill="none" stroke="#000" style="stroke: var(--color6, #000)" stroke-linejoin="miter" stroke-linecap="butt" stroke-miterlimit="4" stroke-width="0.3368" d="M22.4 13.474c0 1.373-1.296 2.526-2.947 2.526s-2.947-1.153-2.947-2.526c0-1.373 1.296-2.526 2.947-2.526s2.947 1.153 2.947 2.526z"></path>
<path fill="#000" style="fill: var(--color6, #000)" d="M21.172 15.179l1.741 1.459-0.48 0.408-1.741-1.459 0.48-0.408z"></path>
<path fill="#d9d9d9" style="fill: var(--color7, #d9d9d9); stroke: var(--color6, #000)" opacity="0.01" stroke="#000" stroke-linejoin="miter" stroke-linecap="butt" stroke-miterlimit="4" stroke-width="0.3368" d="M8.589 9.6h14.989v8.589h-14.989v-8.589z"></path>
<path fill="#000" style="fill: var(--color6, #000)" d="M9.095 13.777h1.379v-0.269h0.345v-0.269h0.345v-0.269h0.689v0.269h0.345v0.269h0.345v0.269h1.379v-0.269h0.345v-0.269h0.345v-0.269h0.689v0.269h0.345v0.269h0.345v0.269h0.345l0.172 0.539h-0.862v-0.539h-1.034v0.269h-0.345v0.269h-2.068v-0.269h-0.345v-0.269h-0.689v0.269h-0.345v0.269h-1.723v-0.539z"></path>
<path fill="#000" style="fill: var(--color6, #000)" d="M16.674 13.754h0.636v-0.281h0.318v-0.281h0.318v-0.281h0.318v-0.281h0.954v0.281h0.318v0.281h0.318v0.281h0.318v0.281h2.227v0.561h-2.545v-0.281h-0.318v-0.281h-0.318v-0.281h-0.318v-0.281h-0.318v0.281h-0.318v0.281h-0.318v0.561h-1.273v-0.561z"></path>
<path fill="#000" style="fill: var(--color6, #000)" d="M9.432 16.505h4.716v0.674h-4.716v-0.674z"></path>
<path fill="#000" style="fill: var(--color6, #000)" d="M14.989 16.505h1.347v0.674h-1.347v-0.674z"></path>
</symbol>
<symbol id="icon-svg2" viewBox="0 0 32 32">
<path fill="#00a5ea" style="fill: var(--color5, #00a5ea); stroke: var(--color4, #061e7d)" stroke="#061e7d" stroke-linejoin="miter" stroke-linecap="butt" stroke-miterlimit="4" stroke-width="0.8421" d="M28.211 13.979c0 6.744-5.467 12.211-12.211 12.211s-12.211-5.467-12.211-12.211c0-6.744 5.467-12.211 12.211-12.211s12.211 5.467 12.211 12.211z"></path>
<path fill="#061e7d" style="fill: var(--color4, #061e7d)" d="M10.883 11.486l1.663-0.702 0.448-0.447 0.64-0.574 0.767-1.659 0.768-1.85 0.64-0.191h0.576l0.576 0.505 0.192 0.758-0.192 0.97-1.343 2.743 1.535-0.128 1.087-0.128h1.087l1.087 0.128 0.448 0.128 0.128 0.245v0.421l-0.128 0.421-0.512 0.316-0.384 0.128-0.32 0.128 0.32 0.064 0.64 0.255 0.192 0.128 0.192 0.319v0.255l-0.064 0.383-0.32 0.255-0.831 0.064 0.448 0.255 0.448 0.128 0.192 0.255v0.383l-0.064 0.447-0.128 0.255-0.256 0.128-0.767 0.319 0.32 0.168 0.384 0.253 0.256 0.337v0.337l-0.058 0.421-0.326 0.421h-1.105l-4.267-0.406-3.837 0.128-0.128-6.762z"></path>
</symbol>
<symbol id="icon-svg3" viewBox="0 0 32 32">
<path fill="#00a5ea" style="fill: var(--color5, #00a5ea); stroke: var(--color4, #061e7d)" stroke="#061e7d" stroke-linejoin="miter" stroke-linecap="butt" stroke-miterlimit="4" stroke-width="0.8421" d="M28.211 13.979c0 6.744-5.467 12.211-12.211 12.211s-12.211-5.467-12.211-12.211c0-6.744 5.467-12.211 12.211-12.211s12.211 5.467 12.211 12.211z"></path>
<path fill="none" stroke="#061e7d" style="stroke: var(--color4, #061e7d)" stroke-linejoin="miter" stroke-linecap="butt" stroke-miterlimit="4" stroke-width="0.3368" d="M19.95 14.783c0 2.752-1.815 4.922-3.985 4.922s-3.985-2.17-3.985-4.922c0-2.752 1.814-4.922 3.985-4.922s3.985 2.17 3.985 4.922z"></path>
<path fill="none" stroke="#061e7d" style="stroke: var(--color4, #061e7d)" stroke-linejoin="miter" stroke-linecap="butt" stroke-miterlimit="4" stroke-width="0.3368" d="M21.29 13.175c0 0.171-0.009 0.303-0.024 0.401-0.016 0.1-0.036 0.152-0.051 0.175-0.011-0.004-0.032-0.012-0.064-0.033-0.107-0.070-0.251-0.217-0.437-0.434-0.134-0.156-0.281-0.339-0.442-0.539-0.059-0.074-0.121-0.15-0.185-0.229-0.468-0.578-1.038-1.255-1.681-1.788-0.641-0.531-1.375-0.937-2.172-0.937s-1.547 0.404-2.212 0.934c-0.667 0.532-1.27 1.208-1.772 1.786-0.050 0.057-0.098 0.113-0.146 0.168-0.194 0.224-0.371 0.428-0.53 0.599-0.201 0.216-0.36 0.364-0.479 0.436-0.057 0.034-0.088 0.040-0.097 0.040-0.001-0.001-0.004-0.004-0.007-0.008-0.016-0.022-0.039-0.073-0.056-0.172-0.017-0.097-0.027-0.228-0.027-0.398 0-2.711 2.316-4.922 5.19-4.922s5.19 2.212 5.19 4.922zM11.001 13.756c0 0-0-0-0-0l0 0z"></path>
<path fill="#061e7d" style="fill: var(--color4, #061e7d)" d="M19.935 13.795h0.825l0.601 0.131 0.424 0.124 0.125 0.219v1.547l-0.118 0.104-0.448 0.261-0.598 0.261-0.811 0.118v-2.766z"></path>
<path fill="#061e7d" style="fill: var(--color4, #061e7d)" d="M11.115 13.957v0l0.768-0.15 0.111 2.763-0.775 0.031-0.572-0.108-0.403-0.107-0.127-0.214-0.063-1.558 0.206-0.311 0.292-0.247 0.562-0.1z"></path>
<path fill="#061e7d" style="fill: var(--color4, #061e7d)" d="M19.326 12.383l0.468 1.469-0.039-0.041-0.025-0.026h-0.419l-0.146-0.305h-0.436l-0.146-0.304h-1.010v0.609h-0.122v-0.305h-0.873v-0.304h-0.873v-0.304h-0.291v-0.304h-0.582v-0.304h-0.291v-0.609h-0.459v0.913h-0.291v0.913h-0.291v0.304h-0.291v0.304h-0.582v0.304h-0.399l0.13-0.815 0.143-0.746 0.427-0.745 0.43-0.601 0.716-0.749 0.713-0.447 0.705-0.295h0.847l0.707 0.148 0.85 0.445 0.858 0.897 0.571 0.897z"></path>
<path fill="#061e7d" style="fill: var(--color4, #061e7d)" d="M13.202 17.127h1.98v-0.274h1.132v0.274h0.283v0.274h0.283v0.822h-0.566v0.274h-1.131v-0.274h-0.566v-0.274h-1.132v-0.274h-0.566l-0.424-0.822h0.707v0.274z"></path>
<path fill="#061e7d" style="fill: var(--color4, #061e7d)" d="M13.956 14.247h0.804v0.268h0.268v0.804h-0.268v0.268h-0.804v-0.268h-0.268v-0.804h0.268v-0.268z"></path>
<path fill="#061e7d" style="fill: var(--color4, #061e7d)" d="M17.171 14.247h0.804v0.268h0.268v0.804h-0.268v0.268h-0.804v-0.268h-0.268v-0.804h0.268v-0.268z"></path>
</symbol>
<symbol id="icon-svg4" viewBox="0 0 32 32">
<path fill="#00a5ea" style="fill: var(--color5, #00a5ea); stroke: var(--color4, #061e7d)" stroke="#061e7d" stroke-linejoin="miter" stroke-linecap="butt" stroke-miterlimit="4" stroke-width="0.8421" d="M28.211 13.979c0 6.744-5.467 12.211-12.211 12.211s-12.211-5.467-12.211-12.211c0-6.744 5.467-12.211 12.211-12.211s12.211 5.467 12.211 12.211z"></path>
<path fill="none" stroke="#061e7d" style="stroke: var(--color4, #061e7d)" stroke-linejoin="miter" stroke-linecap="butt" stroke-miterlimit="4" stroke-width="0.6737" d="M22.151 13.77c0 3.419-2.772 6.191-6.191 6.191s-6.191-2.772-6.191-6.191c0-3.419 2.772-6.191 6.191-6.191s6.191 2.772 6.191 6.191z"></path>
<path fill="none" stroke="#061e7d" style="stroke: var(--color4, #061e7d)" stroke-linejoin="miter" stroke-linecap="butt" stroke-miterlimit="4" stroke-width="0.6737" d="M19.651 13.77c0 1.71-0.445 3.242-1.147 4.336-0.704 1.098-1.636 1.716-2.614 1.716s-1.91-0.618-2.614-1.716c-0.702-1.094-1.147-2.626-1.147-4.336s0.445-3.242 1.147-4.336c0.704-1.098 1.636-1.716 2.614-1.716s1.91 0.618 2.614 1.716c0.702 1.094 1.147 2.626 1.147 4.336z"></path>
<path fill="#061e7d" style="fill: var(--color4, #061e7d)" d="M10.682 10.298h10.556v0.556h-10.556v-0.556z"></path>
<path fill="#061e7d" style="fill: var(--color4, #061e7d)" d="M9.848 13.493h12.223v0.556h-12.223v-0.556z"></path>
<path fill="#061e7d" style="fill: var(--color4, #061e7d)" d="M10.543 16.826h10.695v0.556h-10.695v-0.556z"></path>
<path fill="#061e7d" style="fill: var(--color4, #061e7d)" d="M16.117 7.903l0.061 11.701-0.556 0.003-0.061-11.701 0.556-0.003z"></path>
<path fill="#00a5ea" style="fill: var(--color5, #00a5ea); stroke: var(--color4, #061e7d)" stroke="#061e7d" stroke-linejoin="miter" stroke-linecap="butt" stroke-miterlimit="4" stroke-width="0.5053" d="M21.213 18.992l0.896-0.4 0.614 1.376-0.896 0.4-0.614-1.376z"></path>
<path fill="#00a5ea" style="fill: var(--color5, #00a5ea); stroke: var(--color4, #061e7d)" stroke="#061e7d" stroke-linejoin="miter" stroke-linecap="butt" stroke-miterlimit="4" stroke-width="0.6737" d="M20.204 19.311l-0.287-3.9 3.28 2.112-0.014 0.003-0.029 0.007-0.028 0.012-0.437 0.193-0.054 0.081-0.147 0.218-1.418 1.005-0.459 0.041-0.063 0.035-0.345 0.193z"></path>
</symbol>
<symbol id="icon-SVG5" viewBox="0 0 32 32">
<path fill="#00a5ea" style="fill: var(--color5, #00a5ea); stroke: var(--color4, #061e7d)" stroke="#061e7d" stroke-linejoin="miter" stroke-linecap="butt" stroke-miterlimit="4" stroke-width="0.8421" d="M28.211 13.979c0 6.744-5.467 12.211-12.211 12.211s-12.211-5.467-12.211-12.211c0-6.744 5.467-12.211 12.211-12.211s12.211 5.467 12.211 12.211z"></path>
<path fill="#061e7d" style="fill: var(--color4, #061e7d)" d="M10.568 18.628l-0.783-0-0.348-0.169-0.171-0.262 0.004-0.665 0.006-1.096 0.013-2.361 0.013-2.361 0.006-1.096 0.005-0.928 0.211-0.253 0.174-0.084 0.174-0.077 0.348-0.007 0.403 0.007-0.053 9.353z"></path>
<path fill="#061e7d" style="fill: var(--color4, #061e7d)" d="M19.713 9.284l1.767-0.004 0.324 0.004 0.255 0.081 0.255 0.168 0.255 0.337v7.831l-0.085 0.505-0.3 0.251-0.392 0.085-0.392 0.078-0.785 0.008-0.909-0.005 0.008-9.341z"></path>
<path fill="#061e7d" style="fill: var(--color4, #061e7d)" d="M10.61 9.28h9.095v1.831l-0.168-0.114-0.253-0.172-0.337-0.154-0.421-0.154h-6.737l-0.589 0.154-0.259 0.136-0.165 0.153-0.165 0.174v-1.853z"></path>
<path fill="#061e7d" style="fill: var(--color4, #061e7d)" d="M19.705 18.608l-9.163-0.001 0.017-1.831 0.169 0.116 0.254 0.175 0.339 0.158 0.424 0.158 6.812 0.064 0.597-0.149 0.263-0.134 0.169-0.151 0.169-0.173-0.050 1.767z"></path>
<path fill="#00a5ea" style="fill: var(--color5, #00a5ea)" d="M20.547 10.459h0.168v-0.168h0.337v0.168h0.168v0.253h0.253v0.589h-0.253v0.168h-0.168v0.168h-0.337v-0.168h-0.168v-0.168h-0.253v-0.589h0.253v-0.253z"></path>
<path fill="#00a5ea" style="fill: var(--color5, #00a5ea)" d="M20.631 12.48h0.168v-0.168h0.337v0.168h0.168v0.253h0.253v0.589h-0.253v0.168h-0.168v0.168h-0.337v-0.168h-0.168v-0.168h-0.253v-0.589h0.253v-0.253z"></path>
<path fill="#061e7d" style="fill: var(--color4, #061e7d)" d="M11.789 11.975h2.863v0.505h-2.863v-0.505z"></path>
<path fill="#061e7d" style="fill: var(--color4, #061e7d)" d="M15.326 11.975h2.021v0.505h-2.021v-0.505z"></path>
<path fill="#061e7d" style="fill: var(--color4, #061e7d)" d="M15.831 13.659h1.516v0.337h0.253v1.684h-0.253v0.337h-1.516v-0.337h0.926v-0.253h0.337v-1.179h-0.337v-0.253h-0.926v-0.337z"></path>
<path fill="#061e7d" style="fill: var(--color4, #061e7d)" d="M13.018 16.006l-0.019-3.52 0.505-0.003 0.019 3.52-0.505 0.003z"></path>
<path fill="#061e7d" style="fill: var(--color4, #061e7d)" d="M15.346 16.005l-0.020-3.555 0.505-0.003 0.020 3.555-0.505 0.003z"></path>
</symbol>
<symbol id="icon-SVG6" viewBox="0 0 32 32">
<path fill="#00a5ea" style="fill: var(--color5, #00a5ea); stroke: var(--color4, #061e7d)" stroke="#061e7d" stroke-linejoin="miter" stroke-linecap="butt" stroke-miterlimit="4" stroke-width="0.8421" d="M28.211 13.979c0 6.744-5.467 12.211-12.211 12.211s-12.211-5.467-12.211-12.211c0-6.744 5.467-12.211 12.211-12.211s12.211 5.467 12.211 12.211z"></path>
<path fill="#061e7d" style="fill: var(--color4, #061e7d)" d="M10.824 19.511h1.13l-0.028-0.275h0.275v-0.275h0.275v-0.551h0.275v-0.275h0.551v0.826h-0.275v0.551h-0.275v0.275h-0.275v0.275h-2.203v-1.928h0.275v-0.275h0.275v-0.275h0.275v-0.275h0.551v-0.275h0.275v0.275h0.275v0.551h-0.826v0.275h-0.275v0.275h-0.275v1.101z"></path>
<path fill="#061e7d" style="fill: var(--color4, #061e7d)" d="M11.926 16.206h0.551v0.551h-0.551v-0.551z"></path>
<path fill="#061e7d" style="fill: var(--color4, #061e7d)" d="M12.201 16.482h0.551v0.551h-0.551v-0.551z"></path>
<path fill="#061e7d" style="fill: var(--color4, #061e7d)" d="M12.477 16.757h0.551v0.551h-0.551v-0.551z"></path>
<path fill="#061e7d" style="fill: var(--color4, #061e7d)" d="M12.752 17.032h0.551v0.551h-0.551v-0.551z"></path>
<path fill="#061e7d" style="fill: var(--color4, #061e7d)" d="M13.027 17.308h0.551v0.551h-0.551v-0.551z"></path>
<path fill="#061e7d" style="fill: var(--color4, #061e7d)" d="M13.303 17.583h0.551v0.551h-0.551v-0.551z"></path>
<path fill="#061e7d" style="fill: var(--color4, #061e7d)" d="M13.578 17.858h0.551v0.551h-0.551v-0.551z"></path>
<path fill="#061e7d" style="fill: var(--color4, #061e7d)" d="M17.433 16.482h0.551v1.377h-0.275v0.275h-0.275v-1.652z"></path>
<path fill="#061e7d" style="fill: var(--color4, #061e7d)" d="M16.882 16.757h0.551v1.652h-0.275v0.275h-0.275v-1.101h-0.275v-0.551h0.275v-0.275z"></path>
<path fill="#061e7d" style="fill: var(--color4, #061e7d)" d="M16.332 17.583h0.551v1.377h-0.275v0.275h-0.275v-1.652z"></path>
<path fill="#061e7d" style="fill: var(--color4, #061e7d)" d="M15.781 17.858h0.551v1.377h-0.275v0.275h-0.275v-1.652z"></path>
<path fill="#061e7d" style="fill: var(--color4, #061e7d)" d="M12.752 12.902h1.377v0.551h-0.275v0.275h-0.275v0.275h-0.275v0.275h-0.275v0.275h-0.275v0.551h-1.928v-0.275h0.551v-0.551h0.275v-0.275h0.275v-0.275h0.275v-0.275h0.275v-0.551h0.275z"></path>
<path fill="#061e7d" style="fill: var(--color4, #061e7d)" d="M12.925 14.96l5.413-5.636 0.828-0.409 0.69-0.272 0.689-0.135 0.827-0.134 1.239 0.005-0.142 1.101-0.141 0.688-0.28 0.963-0.278 0.55-0.416 0.687-5.648 5.497-0.711 0.087-0.433-0.033-1.867-2.126-0.020-0.285 0.249-0.547z"></path>
<path fill="#00a5ea" style="fill: var(--color5, #00a5ea)" d="M20.187 11.663c0 0.532-0.431 0.964-0.964 0.964s-0.964-0.431-0.964-0.964c0-0.532 0.431-0.964 0.964-0.964s0.964 0.431 0.964 0.964z"></path>
</symbol>
<symbol id="icon-tarrifs" viewBox="0 0 32 32">
<path fill="none" stroke="#061e7d" style="stroke: var(--color4, #061e7d)" stroke-linejoin="miter" stroke-linecap="butt" stroke-miterlimit="4" stroke-width="1.3617" d="M27.915 14.979c0 7.52-6.097 13.617-13.617 13.617s-13.617-6.097-13.617-13.617c0-7.52 6.097-13.617 13.617-13.617s13.617 6.097 13.617 13.617z"></path>
<path fill="none" stroke="#061e7d" style="stroke: var(--color4, #061e7d)" stroke-linejoin="miter" stroke-linecap="butt" stroke-miterlimit="4" stroke-width="1.3617" d="M22.439 14.979c0 3.754-0.977 7.12-2.521 9.527-1.549 2.415-3.605 3.785-5.773 3.785s-4.224-1.371-5.773-3.785c-1.544-2.407-2.521-5.774-2.521-9.527s0.977-7.12 2.521-9.527c1.549-2.415 3.605-3.785 5.773-3.785s4.224 1.371 5.773 3.785c1.544 2.407 2.521 5.774 2.521 9.527z"></path>
<path fill="#061e7d" style="fill: var(--color4, #061e7d)" d="M2.738 7.373h23.12v1.217h-23.12v-1.217z"></path>
<path fill="#061e7d" style="fill: var(--color4, #061e7d)" d="M0.913 14.37h26.77v1.217h-26.77v-1.217z"></path>
<path fill="#061e7d" style="fill: var(--color4, #061e7d)" d="M2.434 21.671h23.424v1.217h-23.424v-1.217z"></path>
<path fill="#061e7d" style="fill: var(--color4, #061e7d)" d="M14.642 2.129l0.133 25.628-1.217 0.006-0.133-25.628 1.217-0.006z"></path>
<path fill="none" stroke="#061e7d" style="stroke: var(--color4, #061e7d)" stroke-linejoin="miter" stroke-linecap="butt" stroke-miterlimit="4" stroke-width="1.0213" d="M24.876 25.45l2.124-0.91 1.76 4.11-2.124 0.91-1.76-4.11z"></path>
<path fill="#e2e5e8" style="fill: var(--color8, #e2e5e8); stroke: var(--color4, #061e7d)" stroke="#061e7d" stroke-linejoin="miter" stroke-linecap="butt" stroke-miterlimit="4" stroke-width="1.3617" d="M21.815 26.025l0.767-9.002 6.757 6.051-0.266 0.021-1.073 0.282-0.546 0.585-3.526 1.738-1.035-0.072-1.078 0.397z"></path>
</symbol>
</defs>
</svg>
