<svg width="190" height="190" viewBox="0 0 190 190" fill="none" xmlns="http://www.w3.org/2000/svg">
<g filter="url(#filter0_d_7_107)">
<circle cx="95" cy="83" r="72.5" fill="#00A5EA" stroke="#061E7D" stroke-width="5"/>
<path d="M133 80C133 88.1529 125.306 95 115.5 95C105.694 95 98 88.1529 98 80C98 71.8471 105.694 65 115.5 65C125.306 65 133 71.8471 133 80Z" stroke="black" stroke-width="2"/>
<rect width="13.4849" height="3.74045" transform="matrix(0.766422 0.642337 -0.762316 0.647204 125.709 90.1255)" fill="black"/>
<rect x="51" y="57" width="89" height="51" fill="#D9D9D9" fill-opacity="0.01" stroke="black" stroke-width="2"/>
<path d="M54 81.8H62.186V80.2H64.2326V78.6H66.2791V77H70.3721V78.6H72.4186V80.2H74.4651V81.8H82.6512V80.2H84.6977V78.6H86.7442V77H90.8372V78.6H92.8837V80.2H94.9302V81.8H96.9767L98 85H95.9535H92.8837V81.8H90.8372H88.7907H86.7442V83.4H84.6977V85H72.4186V83.4H70.3721V81.8H66.2791V83.4H64.2326V85H54V81.8Z" fill="black"/>
<path d="M99 81.6667H102.778V80H104.667V78.3333H106.556V76.6667H108.444V75H114.111V76.6667H116V78.3333H117.889V80H119.778V81.6667H121.667H126.389H129.222H133V85H129.222H124.5H121.667H119.778H117.889V83.3333H116V81.6667H114.111V80H112.222V78.3333H110.333V80H108.444V81.6667H106.556V83.3333V85H104.667H99V81.6667Z" fill="black"/>
<rect x="56" y="98" width="28" height="4" fill="black"/>
<rect x="89" y="98" width="8" height="4" fill="black"/>
</g>
<defs>
<filter id="filter0_d_7_107" x="0" y="0" width="190" height="190" filterUnits="userSpaceOnUse" color-interpolation-filters="sRGB">
<feFlood flood-opacity="0" result="BackgroundImageFix"/>
<feColorMatrix in="SourceAlpha" type="matrix" values="0 0 0 0 0 0 0 0 0 0 0 0 0 0 0 0 0 0 127 0" result="hardAlpha"/>
<feOffset dy="12"/>
<feGaussianBlur stdDeviation="10"/>
<feComposite in2="hardAlpha" operator="out"/>
<feColorMatrix type="matrix" values="0 0 0 0 0.470588 0 0 0 0 0.466667 0 0 0 0 0.466667 0 0 0 0.75 0"/>
<feBlend mode="normal" in2="BackgroundImageFix" result="effect1_dropShadow_7_107"/>
<feBlend mode="normal" in="SourceGraphic" in2="effect1_dropShadow_7_107" result="shape"/>
</filter>
</defs>
</svg>
