<svg width="190" height="190" viewBox="0 0 190 190" fill="none" xmlns="http://www.w3.org/2000/svg">
<g filter="url(#filter0_d_6_63)">
<circle cx="95" cy="83" r="72.5" fill="#00A5EA" stroke="#061E7D" stroke-width="5"/>
<path d="M62.7454 110.604L59.6462 110.603L58.0965 110.603L57.0633 110.102L56.0301 109.601L55.0137 108.044L55.0351 104.093L55.0703 97.5844L55.146 83.5658L55.2218 69.5473L55.2569 63.0387L55.2867 57.5314L56.5375 56.0296L57.5705 55.5291L58.6035 55.0693L60.6697 55.029L63.0617 55.07L62.7454 110.604Z" fill="#061E7D"/>
<path d="M117.047 55.1244L124.042 55.1099L127.539 55.1026L129.46 55.1244L130.973 55.6024L132.485 56.6024L133.997 58.6024L133.997 61.6024L133.997 68.1024L133.997 82.1024L133.997 96.1025L133.997 99.1025L133.997 102.602L133.997 105.102L133.493 108.102L131.71 109.595L129.385 110.1L127.059 110.564L122.396 110.614L116.998 110.585L117.047 55.1244Z" fill="#061E7D"/>
<path d="M62.9972 55.1024H116.997V65.9727L115.997 65.2933L114.497 64.2691L112.497 63.3524L109.997 62.4358H102.997H95.9972H89.9972H75.9972H69.9972L66.4972 63.3524L64.9608 64.161L63.979 65.0668L62.9972 66.1024V55.1024Z" fill="#061E7D"/>
<path d="M116.996 110.482L62.5915 110.478L62.6937 99.6081L63.6984 100.297L65.2054 101.335L67.219 102.271L69.7381 103.211L76.8157 103.278L83.8933 103.344L89.9599 103.401L104.115 103.535L110.182 103.592L113.729 102.708L115.29 101.914L116.291 101.018L117.294 99.9916L116.996 110.482Z" fill="#061E7D"/>
<path d="M121.997 62.1024H122.997V61.1024H124.997V62.1024H125.997V63.6024H126.997H127.497V65.6024V67.1024H125.997V68.1024H124.997V69.1024H123.997H122.997V68.1024H121.997V67.1024H120.497V63.6024H121.997V62.1024Z" fill="#00A5EA"/>
<path d="M122.497 74.1024H123.497V73.1024H125.497V74.1024H126.497V75.6024H127.497H127.997V77.6024V79.1024H126.497V80.1024H125.497V81.1024H124.497H123.497V80.1024H122.497V79.1024H120.997V75.6024H122.497V74.1024Z" fill="#00A5EA"/>
<rect x="69.9972" y="71.1024" width="17" height="3" fill="#061E7D"/>
<rect x="90.9972" y="71.1024" width="12" height="3" fill="#061E7D"/>
<path d="M93.9972 81.1024H102.997V82.6024V83.1024H104.497V84.6024V86.6024V88.6024V91.6024V93.1024H102.997V95.1024H99.4972H96.9972H93.9972V93.1024H97.4972H99.4972V92.1024V91.6024H100.497H101.497V87.1024V84.6024H99.4972V83.1024H93.9972V81.1024Z" fill="#061E7D"/>
<rect x="77.2944" y="95.0354" width="20.9004" height="3" transform="rotate(-90.3171 77.2944 95.0354)" fill="#061E7D"/>
<rect x="91.1185" y="95.03" width="21.1092" height="3" transform="rotate(-90.3171 91.1185 95.03)" fill="#061E7D"/>
</g>
<defs>
<filter id="filter0_d_6_63" x="0" y="0" width="190" height="190" filterUnits="userSpaceOnUse" color-interpolation-filters="sRGB">
<feFlood flood-opacity="0" result="BackgroundImageFix"/>
<feColorMatrix in="SourceAlpha" type="matrix" values="0 0 0 0 0 0 0 0 0 0 0 0 0 0 0 0 0 0 127 0" result="hardAlpha"/>
<feOffset dy="12"/>
<feGaussianBlur stdDeviation="10"/>
<feComposite in2="hardAlpha" operator="out"/>
<feColorMatrix type="matrix" values="0 0 0 0 0 0 0 0 0 0 0 0 0 0 0 0 0 0 0.25 0"/>
<feBlend mode="normal" in2="BackgroundImageFix" result="effect1_dropShadow_6_63"/>
<feBlend mode="normal" in="SourceGraphic" in2="effect1_dropShadow_6_63" result="shape"/>
</filter>
</defs>
</svg>
