<svg width="190" height="190" viewBox="0 0 190 190" fill="none" xmlns="http://www.w3.org/2000/svg">
<g filter="url(#filter0_d_5_29)">
<circle cx="95" cy="83" r="72.5" fill="#00A5EA" stroke="#061E7D" stroke-width="5"/>
<path d="M64.2699 115.844L70.979 115.844L70.8098 114.209H72.4448V112.574H74.0798V110.939V109.304H75.7148V107.669H77.3497H78.9847V109.304V110.939V112.574H77.3497V114.209V115.844H75.7148V117.479H74.0798V119.114H73.2623L72.4448 119.114H62.635L61 119.114V117.479V115.844V107.669H62.635V106.034H64.2699V104.399H65.9049V102.764H67.5399H69.1749V101.129H70.8098V102.764H72.4448V106.034H70.8098H67.5399V107.669H65.9049V109.304H64.2699V115.844Z" fill="#061E7D"/>
<rect x="70.8098" y="96.2241" width="3.26995" height="3.26995" fill="#061E7D"/>
<rect x="72.4448" y="97.8591" width="3.26995" height="3.26995" fill="#061E7D"/>
<rect x="74.0798" y="99.494" width="3.26995" height="3.26995" fill="#061E7D"/>
<rect x="75.7148" y="101.129" width="3.26995" height="3.26995" fill="#061E7D"/>
<rect x="77.3497" y="102.764" width="3.26995" height="3.26995" fill="#061E7D"/>
<rect x="78.9847" y="104.399" width="3.26995" height="3.26995" fill="#061E7D"/>
<rect x="80.6197" y="106.034" width="3.26995" height="3.26995" fill="#061E7D"/>
<path d="M103.509 97.859H106.779V106.034H105.144V107.669H103.509V97.859Z" fill="#061E7D"/>
<path d="M100.239 99.494H103.509V107.669V109.304H101.874V110.939H100.239V109.304V102.764V104.399H98.6044V102.764V101.129H100.239V99.494Z" fill="#061E7D"/>
<path d="M96.9695 104.399H100.239V112.574H98.6045V114.209H96.9695V104.399Z" fill="#061E7D"/>
<path d="M93.6995 106.034H96.9695V114.209H95.3345V115.844H93.6995V106.034Z" fill="#061E7D"/>
<path d="M75.7147 76.6044H83.8896V79.8743H82.2546V81.5093H80.6196V83.1443H78.9847V84.7792H77.3497V86.4142H75.7147V88.0492V89.6842H74.0797H72.4448H70.8098H69.1748H67.5398H65.9049H64.2699V88.0492H66.7224H69.1748H67.5398V84.7792H69.1748V83.1443H70.8098V81.5093H72.4448V79.8743H74.0797V78.2393V76.6044H75.7147Z" fill="#061E7D"/>
<path d="M76.74 88.8265L108.881 55.3621L113.797 52.9313L117.891 51.3145L121.982 50.5151L126.891 49.7193L134.248 49.7519L133.402 56.2881L132.566 60.3719L130.906 66.087L129.256 69.3497L126.786 73.4262L93.254 106.066L89.0312 106.584L86.4628 106.387L75.376 93.7668L75.2598 92.0763L76.74 88.8265Z" fill="#061E7D"/>
<circle cx="114.137" cy="69.2471" r="5.72241" fill="#00A5EA"/>
</g>
<defs>
<filter id="filter0_d_5_29" x="0" y="0" width="190" height="190" filterUnits="userSpaceOnUse" color-interpolation-filters="sRGB">
<feFlood flood-opacity="0" result="BackgroundImageFix"/>
<feColorMatrix in="SourceAlpha" type="matrix" values="0 0 0 0 0 0 0 0 0 0 0 0 0 0 0 0 0 0 127 0" result="hardAlpha"/>
<feOffset dy="12"/>
<feGaussianBlur stdDeviation="10"/>
<feComposite in2="hardAlpha" operator="out"/>
<feColorMatrix type="matrix" values="0 0 0 0 0 0 0 0 0 0 0 0 0 0 0 0 0 0 0.25 0"/>
<feBlend mode="normal" in2="BackgroundImageFix" result="effect1_dropShadow_5_29"/>
<feBlend mode="normal" in="SourceGraphic" in2="effect1_dropShadow_5_29" result="shape"/>
</filter>
</defs>
</svg>
