<svg width="80" height="80" viewBox="0 0 80 80" fill="none" xmlns="http://www.w3.org/2000/svg">
<g clip-path="url(#clip0_1_207)">
<path d="M66.0048 35.0337L66.1148 34.9723L66.0033 34.9132L25.6829 13.5508L31.6651 11.1078L76.7721 35.392L59.2857 44.5975L53.7364 41.8808L66.0048 35.0337Z" fill="#104EAB" stroke="#787777"/>
<path d="M64.4764 52.9597L64.608 52.8974L64.4766 52.8352L9.45352 26.7979L14.9915 23.3257L76.3611 52.897L37.4484 71.439V65.7322L64.4764 52.9597Z" fill="#104EAB" stroke="#787777"/>
<path d="M19.3621 58.8214L42.548 47.9682L47.6557 50.8867L19.3621 65.3618V58.8214Z" fill="#104EAB" stroke="#787777"/>
<path d="M13.8837 34.3455V73.8755L9.23077 71.3734V26.8503L64.3008 52.9149L57.7867 56.0468L13.9941 34.284L13.8837 34.2291V34.3455Z" fill="#B8C2CA" stroke="#787777"/>
<path d="M30.8443 21.6405V53.4293L25.591 55.8047V13.593L65.967 34.9751L61.3124 37.5458L30.9563 21.5798L30.8443 21.5208V21.6405Z" fill="#B8C2CA" stroke="#787777"/>
<path d="M30.8443 21.5009L37.6735 25.0611V50.192L30.9193 53.4032L30.8443 21.5009Z" fill="#061E7D"/>
<path d="M76.4728 58.038L31.7448 79.7452V64.8231L37.4484 61.8984V71.4834V71.5975L37.5577 71.5456L76.4728 53.0286V58.038Z" fill="#061E7D" stroke="#787777"/>
<path d="M26.9418 78.6897V67.2672L31.5947 64.9678V79.8395L26.9418 78.6897Z" fill="#B8C2CA" stroke="#787777"/>
<path d="M19.3231 65.4714L47.5051 51.109L52.9758 53.823L14.0338 73.8085V34.4606L19.212 36.9708V65.4101V65.528L19.3231 65.4714Z" fill="#061E7D" stroke="#787777"/>
<path d="M65.0657 47.3205L59.5186 44.6051L76.7787 35.5094L77.0711 41.4247L65.0657 47.3205Z" fill="#061E7D" stroke="#787777"/>
</g>
<defs>
<clipPath id="clip0_1_207">
<rect width="80" height="80" fill="white"/>
</clipPath>
</defs>
</svg>
