<svg width="23" height="26" viewBox="0 0 23 26" fill="none" xmlns="http://www.w3.org/2000/svg">
<path d="M13.1143 17.6464L14.1123 17.7096L14.6745 16.7432L15.7042 16.3074L16.7338 15.8717L22.9679 20.2746L22.9389 21.609L22.3451 23.0744L21.5 24L20.6874 24.6391L20 25L17.6302 25.4475L15.6342 25.321L13.6698 24.6956L12 24L10.2819 22.8152L8.86946 21.3855L6.9999 19.2631L5.13033 17.1407L3.49996 15L1.49995 11.5L0.646071 8.84057L0.166215 5.85657L0.360682 4.3247L1.02537 2.85257L1.5 2L2 1.5L2.5 1L3.5 0.5L4.5 0.356563L6.1662 0.356562L8.01137 3.29509L8.44716 4.3247L8.86946 5.35657L9.66621 7.35657L8.44716 8.74833L7.16621 9.35656L7.50563 11.2791L13.1143 17.6464Z" fill="#061E7D"/>
</svg>
