<svg width="190" height="190" viewBox="0 0 190 190" fill="none" xmlns="http://www.w3.org/2000/svg">
<g filter="url(#filter0_d_3_286)">
<circle cx="95" cy="83" r="72.5" fill="#00A5EA" stroke="#061E7D" stroke-width="5"/>
<path d="M64.6202 68.197L74.4937 64.0303L77.1519 61.3788L80.9494 57.9697L85.5063 48.1212L90.0633 37.1364L93.8608 36H97.2785L100.696 39L101.835 43.5L100.696 49.2576L92.7215 65.5455L101.835 64.7879L108.291 64.0303H114.747L121.203 64.7879L123.861 65.5455L124.62 67V69.5L123.861 72L120.823 73.8788L118.544 74.6364L116.646 75.3939L118.544 75.7727L120.443 76.5303L122.342 77.2879L123.481 78.0455L124.62 79.9394V81.4545L124.241 83.7273L122.342 85.2424L117.405 85.6212L120.063 87.1364L122.722 87.8939L123.861 89.4091V91.6818L123.481 94.3333L122.722 95.8485L121.203 96.6061L116.646 98.5L118.544 99.5L120.823 101L122.342 103V105L122 107.5L120.063 110H113.5L88.1646 107.591L65.3798 108.348L64.6202 68.197Z" fill="#061E7D"/>
</g>
<defs>
<filter id="filter0_d_3_286" x="0" y="0" width="190" height="190" filterUnits="userSpaceOnUse" color-interpolation-filters="sRGB">
<feFlood flood-opacity="0" result="BackgroundImageFix"/>
<feColorMatrix in="SourceAlpha" type="matrix" values="0 0 0 0 0 0 0 0 0 0 0 0 0 0 0 0 0 0 127 0" result="hardAlpha"/>
<feOffset dy="12"/>
<feGaussianBlur stdDeviation="10"/>
<feComposite in2="hardAlpha" operator="out"/>
<feColorMatrix type="matrix" values="0 0 0 0 0 0 0 0 0 0 0 0 0 0 0 0 0 0 0.25 0"/>
<feBlend mode="normal" in2="BackgroundImageFix" result="effect1_dropShadow_3_286"/>
<feBlend mode="normal" in="SourceGraphic" in2="effect1_dropShadow_3_286" result="shape"/>
</filter>
</defs>
</svg>
