<svg width="190" height="190" viewBox="0 0 190 190" fill="none" xmlns="http://www.w3.org/2000/svg">
<g filter="url(#filter0_d_3_307)">
<circle cx="95" cy="83" r="72.5" fill="#00A5EA" stroke="#061E7D" stroke-width="5"/>
<path d="M118.455 87.7727C118.455 104.114 107.681 117 94.7954 117C81.9096 117 71.1364 104.114 71.1364 87.7727C71.1364 71.431 81.9096 58.5454 94.7954 58.5454C107.681 58.5454 118.455 71.431 118.455 87.7727Z" stroke="#061E7D" stroke-width="2"/>
<path d="M126.409 78.2273C126.409 79.2429 126.358 80.0246 126.266 80.6089C126.173 81.2016 126.05 81.5101 125.962 81.649C125.894 81.6272 125.771 81.5751 125.581 81.451C124.948 81.0353 124.09 80.1616 122.986 78.8728C122.193 77.946 121.32 76.862 120.36 75.6703C120.007 75.2314 119.642 74.778 119.264 74.3125C116.484 70.8815 113.101 66.8604 109.285 63.6971C105.479 60.5416 101.12 58.1364 96.3863 58.1364C91.6582 58.1364 87.2028 60.5369 83.2536 63.685C79.2925 66.8426 75.7115 70.8586 72.7347 74.2864C72.4403 74.6254 72.1523 74.9582 71.8706 75.2836C70.7175 76.6156 69.6702 77.8255 68.7257 78.8426C67.5327 80.1272 66.5902 81.0067 65.8843 81.4288C65.5444 81.6321 65.3645 81.6637 65.3059 81.6649C65.2971 81.6563 65.2832 81.6411 65.265 81.6159C65.1702 81.4842 65.0346 81.1846 64.931 80.5918C64.8302 80.0149 64.7727 79.2394 64.7727 78.2273C64.7727 62.1332 78.5215 49 95.5909 49C112.66 49 126.409 62.1332 126.409 78.2273ZM65.3168 81.6742C65.3168 81.6742 65.3164 81.674 65.3156 81.6734L65.3168 81.6742Z" stroke="#061E7D" stroke-width="2"/>
<path d="M118.364 81.9091H123.264L126.831 82.6893L129.348 83.4234L130.091 84.7237V93.9094L129.389 94.524L126.728 96.0762L123.179 97.6286L118.364 98.3309V81.9091Z" fill="#061E7D" stroke="#061E7D"/>
<path d="M65.9932 82.8673L65.9932 82.8674L66.0019 82.8657L70.5533 81.9754L71.2132 98.3791L66.6143 98.5642L63.2191 97.9216L60.8243 97.2874L60.0701 96.0169L59.6979 86.7669L60.9187 84.9226L62.6551 83.4587L65.9932 82.8673Z" fill="#061E7D" stroke="#061E7D"/>
<path d="M114.747 73.5237L117.526 82.2477L117.293 82.0037L117.145 81.8492H116.932H116.068H114.656L113.928 80.3258L113.792 80.0413H113.477H112.613H111.201L110.473 78.5179L110.337 78.2335H110.022H104.839H104.339V78.7335V81.8492H103.612V80.5413V80.0413H103.112H101.384H99.6566H98.4291V78.7335V78.2335H97.9291H94.4741H93.2466V76.9256V76.4256H92.7466H91.5191V75.1178V74.6178H91.0191H89.2916H88.0641V73.3099V72.8099H87.5641H86.3366V71.5021V69.6942V69.1942H85.8366H84.1091H83.6091V69.6942V71.5021V74.6178H82.3816H81.8816V75.1178V80.0413H80.6541H80.1541V80.5413V81.8492H78.9265H78.4265V82.3492V83.657H77.199H75.4715H74.9715V84.157V85.4649H72.6025L73.3729 80.6276L74.2194 76.1978L76.7565 71.7727L79.3124 68.2063L81.8793 65.52L83.5638 63.7571L87.7951 61.1003L91.9832 59.3471H97.0136L101.214 60.2262L106.262 62.8677L111.354 68.1963L114.747 73.5237Z" fill="#061E7D" stroke="#061E7D"/>
<path d="M78.3849 101.693H90.1417V100.066H96.8599V101.693H98.5395V103.32H100.219V108.201H96.8599V109.828H90.1417V108.201H88.4622H86.7826V106.574H80.0644V104.947H76.7053L74.186 100.066H78.3849V101.693Z" fill="#061E7D"/>
<path d="M82.8636 84.5909H84.4545H87.6363V86.1818H89.2273V90.9545H87.6363V92.5454H82.8636V90.9545H81.2727V86.1818H82.8636V84.5909Z" fill="#061E7D"/>
<path d="M101.955 84.5909H103.545H106.727V86.1818H108.318V90.9545H106.727V92.5454H101.955V90.9545H100.364V86.1818H101.955V84.5909Z" fill="#061E7D"/>
</g>
<defs>
<filter id="filter0_d_3_307" x="0" y="0" width="190" height="190" filterUnits="userSpaceOnUse" color-interpolation-filters="sRGB">
<feFlood flood-opacity="0" result="BackgroundImageFix"/>
<feColorMatrix in="SourceAlpha" type="matrix" values="0 0 0 0 0 0 0 0 0 0 0 0 0 0 0 0 0 0 127 0" result="hardAlpha"/>
<feOffset dy="12"/>
<feGaussianBlur stdDeviation="10"/>
<feComposite in2="hardAlpha" operator="out"/>
<feColorMatrix type="matrix" values="0 0 0 0 0 0 0 0 0 0 0 0 0 0 0 0 0 0 0.25 0"/>
<feBlend mode="normal" in2="BackgroundImageFix" result="effect1_dropShadow_3_307"/>
<feBlend mode="normal" in="SourceGraphic" in2="effect1_dropShadow_3_307" result="shape"/>
</filter>
</defs>
</svg>
