<svg width="94" height="90" viewBox="0 0 94 90" fill="none" xmlns="http://www.w3.org/2000/svg">
<circle cx="42" cy="42" r="40" stroke="#061E7D" stroke-width="4"/>
<path d="M65.9149 41.9999C65.9149 53.0266 63.0448 62.916 58.5102 69.9869C53.9615 77.0797 47.9192 81.1063 41.5532 81.1063C35.1872 81.1063 29.1449 77.0797 24.5962 69.9869C20.0616 62.916 17.1915 53.0266 17.1915 41.9999C17.1915 30.9733 20.0616 21.0839 24.5962 14.013C29.1449 6.92019 35.1872 2.89355 41.5532 2.89355C47.9192 2.89355 53.9615 6.92019 58.5102 14.013C63.0448 21.0839 65.9149 30.9733 65.9149 41.9999Z" stroke="#061E7D" stroke-width="4"/>
<rect x="8.04254" y="19.6595" width="67.9149" height="3.57447" fill="#061E7D"/>
<rect x="2.68085" y="40.2128" width="78.6383" height="3.57447" fill="#061E7D"/>
<rect x="7.14893" y="61.6595" width="68.8085" height="3.57447" fill="#061E7D"/>
<rect x="43.0122" y="4.25476" width="75.2822" height="3.57447" transform="rotate(89.7019 43.0122 4.25476)" fill="#061E7D"/>
<rect x="73.0725" y="72.7596" width="6.7884" height="13.1348" transform="rotate(-23.1851 73.0725 72.7596)" stroke="#061E7D" stroke-width="3"/>
<path d="M64.081 74.4493L66.3333 48.0064L86.1819 65.7815L85.5794 65.8283L85.4 65.8422L85.2259 65.888L82.8061 66.5239L82.247 66.6708L81.8526 67.0933L80.6435 68.3881L70.287 73.4941L67.6754 73.3129L67.248 73.2832L66.8459 73.4313L64.081 74.4493Z" fill="#E2E5E8" stroke="#061E7D" stroke-width="4"/>
</svg>
