<!-- Generated by IcoMoon.io -->
<svg version="1.1" xmlns="http://www.w3.org/2000/svg" width="32" height="32" viewBox="0 0 32 32">
<title>menu</title>
<path fill="#00a5ea" stroke="#061e7d" stroke-linejoin="miter" stroke-linecap="butt" stroke-miterlimit="4" stroke-width="1.1852" d="M5.926 0.593h20.148c2.946 0 5.333 2.388 5.333 5.333v20.148c0 2.946-2.388 5.333-5.333 5.333h-20.148c-2.946 0-5.333-2.388-5.333-5.333v-20.148c0-2.946 2.388-5.333 5.333-5.333z"></path>
<path fill="#061e7d" d="M7.111 7.704h17.778c0.327 0 0.593 0.265 0.593 0.593v1.778c0 0.327-0.265 0.593-0.593 0.593h-17.778c-0.327 0-0.593-0.265-0.593-0.593v-1.778c0-0.327 0.265-0.593 0.593-0.593z"></path>
<path fill="#061e7d" d="M7.111 13.63h17.778c0.327 0 0.593 0.265 0.593 0.593v1.778c0 0.327-0.265 0.593-0.593 0.593h-17.778c-0.327 0-0.593-0.265-0.593-0.593v-1.778c0-0.327 0.265-0.593 0.593-0.593z"></path>
<path fill="#061e7d" d="M7.111 19.556h17.778c0.327 0 0.593 0.265 0.593 0.593v1.778c0 0.327-0.265 0.593-0.593 0.593h-17.778c-0.327 0-0.593-0.265-0.593-0.593v-1.778c0-0.327 0.265-0.593 0.593-0.593z"></path>
</svg>
