<!-- Generated by IcoMoon.io -->
<svg version="1.1" xmlns="http://www.w3.org/2000/svg" width="32" height="32" viewBox="0 0 32 32">
<title>svg4</title>
<path fill="#00a5ea" stroke="#061e7d" stroke-linejoin="miter" stroke-linecap="butt" stroke-miterlimit="4" stroke-width="0.8421" d="M28.211 13.979c0 6.744-5.467 12.211-12.211 12.211s-12.211-5.467-12.211-12.211c0-6.744 5.467-12.211 12.211-12.211s12.211 5.467 12.211 12.211z"></path>
<path fill="none" stroke="#061e7d" stroke-linejoin="miter" stroke-linecap="butt" stroke-miterlimit="4" stroke-width="0.6737" d="M22.151 13.77c0 3.419-2.772 6.191-6.191 6.191s-6.191-2.772-6.191-6.191c0-3.419 2.772-6.191 6.191-6.191s6.191 2.772 6.191 6.191z"></path>
<path fill="none" stroke="#061e7d" stroke-linejoin="miter" stroke-linecap="butt" stroke-miterlimit="4" stroke-width="0.6737" d="M19.651 13.77c0 1.71-0.445 3.242-1.147 4.336-0.704 1.098-1.636 1.716-2.614 1.716s-1.91-0.618-2.614-1.716c-0.702-1.094-1.147-2.626-1.147-4.336s0.445-3.242 1.147-4.336c0.704-1.098 1.636-1.716 2.614-1.716s1.91 0.618 2.614 1.716c0.702 1.094 1.147 2.626 1.147 4.336z"></path>
<path fill="#061e7d" d="M10.682 10.298h10.556v0.556h-10.556v-0.556z"></path>
<path fill="#061e7d" d="M9.848 13.493h12.223v0.556h-12.223v-0.556z"></path>
<path fill="#061e7d" d="M10.543 16.826h10.695v0.556h-10.695v-0.556z"></path>
<path fill="#061e7d" d="M16.117 7.903l0.061 11.701-0.556 0.003-0.061-11.701 0.556-0.003z"></path>
<path fill="#00a5ea" stroke="#061e7d" stroke-linejoin="miter" stroke-linecap="butt" stroke-miterlimit="4" stroke-width="0.5053" d="M21.213 18.992l0.896-0.4 0.614 1.376-0.896 0.4-0.614-1.376z"></path>
<path fill="#00a5ea" stroke="#061e7d" stroke-linejoin="miter" stroke-linecap="butt" stroke-miterlimit="4" stroke-width="0.6737" d="M20.204 19.311l-0.287-3.9 3.28 2.112-0.014 0.003-0.029 0.007-0.028 0.012-0.437 0.193-0.054 0.081-0.147 0.218-1.418 1.005-0.459 0.041-0.063 0.035-0.345 0.193z"></path>
</svg>
