<!-- Generated by IcoMoon.io -->
<svg version="1.1" xmlns="http://www.w3.org/2000/svg" width="32" height="32" viewBox="0 0 32 32">
<title>SVG6</title>
<path fill="#00a5ea" stroke="#061e7d" stroke-linejoin="miter" stroke-linecap="butt" stroke-miterlimit="4" stroke-width="0.8421" d="M28.211 13.979c0 6.744-5.467 12.211-12.211 12.211s-12.211-5.467-12.211-12.211c0-6.744 5.467-12.211 12.211-12.211s12.211 5.467 12.211 12.211z"></path>
<path fill="#061e7d" d="M10.824 19.511h1.13l-0.028-0.275h0.275v-0.275h0.275v-0.551h0.275v-0.275h0.551v0.826h-0.275v0.551h-0.275v0.275h-0.275v0.275h-2.203v-1.928h0.275v-0.275h0.275v-0.275h0.275v-0.275h0.551v-0.275h0.275v0.275h0.275v0.551h-0.826v0.275h-0.275v0.275h-0.275v1.101z"></path>
<path fill="#061e7d" d="M11.926 16.206h0.551v0.551h-0.551v-0.551z"></path>
<path fill="#061e7d" d="M12.201 16.482h0.551v0.551h-0.551v-0.551z"></path>
<path fill="#061e7d" d="M12.477 16.757h0.551v0.551h-0.551v-0.551z"></path>
<path fill="#061e7d" d="M12.752 17.032h0.551v0.551h-0.551v-0.551z"></path>
<path fill="#061e7d" d="M13.027 17.308h0.551v0.551h-0.551v-0.551z"></path>
<path fill="#061e7d" d="M13.303 17.583h0.551v0.551h-0.551v-0.551z"></path>
<path fill="#061e7d" d="M13.578 17.858h0.551v0.551h-0.551v-0.551z"></path>
<path fill="#061e7d" d="M17.433 16.482h0.551v1.377h-0.275v0.275h-0.275v-1.652z"></path>
<path fill="#061e7d" d="M16.882 16.757h0.551v1.652h-0.275v0.275h-0.275v-1.101h-0.275v-0.551h0.275v-0.275z"></path>
<path fill="#061e7d" d="M16.332 17.583h0.551v1.377h-0.275v0.275h-0.275v-1.652z"></path>
<path fill="#061e7d" d="M15.781 17.858h0.551v1.377h-0.275v0.275h-0.275v-1.652z"></path>
<path fill="#061e7d" d="M12.752 12.902h1.377v0.551h-0.275v0.275h-0.275v0.275h-0.275v0.275h-0.275v0.275h-0.275v0.551h-1.928v-0.275h0.551v-0.551h0.275v-0.275h0.275v-0.275h0.275v-0.275h0.275v-0.551h0.275z"></path>
<path fill="#061e7d" d="M12.925 14.96l5.413-5.636 0.828-0.409 0.69-0.272 0.689-0.135 0.827-0.134 1.239 0.005-0.142 1.101-0.141 0.688-0.28 0.963-0.278 0.55-0.416 0.687-5.648 5.497-0.711 0.087-0.433-0.033-1.867-2.126-0.020-0.285 0.249-0.547z"></path>
<path fill="#00a5ea" d="M20.187 11.663c0 0.532-0.431 0.964-0.964 0.964s-0.964-0.431-0.964-0.964c0-0.532 0.431-0.964 0.964-0.964s0.964 0.431 0.964 0.964z"></path>
</svg>
