<!-- Generated by IcoMoon.io -->
<svg version="1.1" xmlns="http://www.w3.org/2000/svg" width="32" height="32" viewBox="0 0 32 32">
<title>phonesvg</title>
<path fill="#061e7d" d="M17.987 21.719l1.228 0.078 0.692-1.189 2.535-1.073 7.673 5.419-0.036 1.642-0.731 1.804-1.040 1.139-1 0.787-0.846 0.444-2.917 0.551-2.457-0.156-2.418-0.77-2.055-0.856-2.115-1.458-1.738-1.76-4.602-5.224-2.007-2.635-2.462-4.308-1.051-3.273-0.591-3.673 0.239-1.885 0.818-1.812 0.584-1.049 1.231-1.231 1.231-0.615 1.231-0.177h2.051l2.271 3.617 0.536 1.267 0.52 1.27 0.981 2.462-1.5 1.713-1.577 0.749 0.418 2.366 6.903 7.837z"></path>
</svg>
