<!-- Generated by IcoMoon.io -->
<svg version="1.1" xmlns="http://www.w3.org/2000/svg" width="32" height="32" viewBox="0 0 32 32">
<title>svg1</title>
<path fill="#00a5ea" stroke="#061e7d" stroke-linejoin="miter" stroke-linecap="butt" stroke-miterlimit="4" stroke-width="0.8421" d="M28.211 13.979c0 6.744-5.467 12.211-12.211 12.211s-12.211-5.467-12.211-12.211c0-6.744 5.467-12.211 12.211-12.211s12.211 5.467 12.211 12.211z"></path>
<path fill="none" stroke="#000" stroke-linejoin="miter" stroke-linecap="butt" stroke-miterlimit="4" stroke-width="0.3368" d="M22.4 13.474c0 1.373-1.296 2.526-2.947 2.526s-2.947-1.153-2.947-2.526c0-1.373 1.296-2.526 2.947-2.526s2.947 1.153 2.947 2.526z"></path>
<path fill="#000" d="M21.172 15.179l1.741 1.459-0.48 0.408-1.741-1.459 0.48-0.408z"></path>
<path fill="#d9d9d9" opacity="0.01" stroke="#000" stroke-linejoin="miter" stroke-linecap="butt" stroke-miterlimit="4" stroke-width="0.3368" d="M8.589 9.6h14.989v8.589h-14.989v-8.589z"></path>
<path fill="#000" d="M9.095 13.777h1.379v-0.269h0.345v-0.269h0.345v-0.269h0.689v0.269h0.345v0.269h0.345v0.269h1.379v-0.269h0.345v-0.269h0.345v-0.269h0.689v0.269h0.345v0.269h0.345v0.269h0.345l0.172 0.539h-0.862v-0.539h-1.034v0.269h-0.345v0.269h-2.068v-0.269h-0.345v-0.269h-0.689v0.269h-0.345v0.269h-1.723v-0.539z"></path>
<path fill="#000" d="M16.674 13.754h0.636v-0.281h0.318v-0.281h0.318v-0.281h0.318v-0.281h0.954v0.281h0.318v0.281h0.318v0.281h0.318v0.281h2.227v0.561h-2.545v-0.281h-0.318v-0.281h-0.318v-0.281h-0.318v-0.281h-0.318v0.281h-0.318v0.281h-0.318v0.561h-1.273v-0.561z"></path>
<path fill="#000" d="M9.432 16.505h4.716v0.674h-4.716v-0.674z"></path>
<path fill="#000" d="M14.989 16.505h1.347v0.674h-1.347v-0.674z"></path>
</svg>
