<!-- Generated by IcoMoon.io -->
<svg version="1.1" xmlns="http://www.w3.org/2000/svg" width="32" height="32" viewBox="0 0 32 32">
<title>svg3</title>
<path fill="#00a5ea" stroke="#061e7d" stroke-linejoin="miter" stroke-linecap="butt" stroke-miterlimit="4" stroke-width="0.8421" d="M28.211 13.979c0 6.744-5.467 12.211-12.211 12.211s-12.211-5.467-12.211-12.211c0-6.744 5.467-12.211 12.211-12.211s12.211 5.467 12.211 12.211z"></path>
<path fill="none" stroke="#061e7d" stroke-linejoin="miter" stroke-linecap="butt" stroke-miterlimit="4" stroke-width="0.3368" d="M19.95 14.783c0 2.752-1.815 4.922-3.985 4.922s-3.985-2.17-3.985-4.922c0-2.752 1.814-4.922 3.985-4.922s3.985 2.17 3.985 4.922z"></path>
<path fill="none" stroke="#061e7d" stroke-linejoin="miter" stroke-linecap="butt" stroke-miterlimit="4" stroke-width="0.3368" d="M21.29 13.175c0 0.171-0.009 0.303-0.024 0.401-0.016 0.1-0.036 0.152-0.051 0.175-0.011-0.004-0.032-0.012-0.064-0.033-0.107-0.070-0.251-0.217-0.437-0.434-0.134-0.156-0.281-0.339-0.442-0.539-0.059-0.074-0.121-0.15-0.185-0.229-0.468-0.578-1.038-1.255-1.681-1.788-0.641-0.531-1.375-0.937-2.172-0.937s-1.547 0.404-2.212 0.934c-0.667 0.532-1.27 1.208-1.772 1.786-0.050 0.057-0.098 0.113-0.146 0.168-0.194 0.224-0.371 0.428-0.53 0.599-0.201 0.216-0.36 0.364-0.479 0.436-0.057 0.034-0.088 0.040-0.097 0.040-0.001-0.001-0.004-0.004-0.007-0.008-0.016-0.022-0.039-0.073-0.056-0.172-0.017-0.097-0.027-0.228-0.027-0.398 0-2.711 2.316-4.922 5.19-4.922s5.19 2.212 5.19 4.922zM11.001 13.756c0 0-0-0-0-0l0 0z"></path>
<path fill="#061e7d" d="M19.935 13.795h0.825l0.601 0.131 0.424 0.124 0.125 0.219v1.547l-0.118 0.104-0.448 0.261-0.598 0.261-0.811 0.118v-2.766z"></path>
<path fill="#061e7d" d="M11.115 13.957v0l0.768-0.15 0.111 2.763-0.775 0.031-0.572-0.108-0.403-0.107-0.127-0.214-0.063-1.558 0.206-0.311 0.292-0.247 0.562-0.1z"></path>
<path fill="#061e7d" d="M19.326 12.383l0.468 1.469-0.039-0.041-0.025-0.026h-0.419l-0.146-0.305h-0.436l-0.146-0.304h-1.010v0.609h-0.122v-0.305h-0.873v-0.304h-0.873v-0.304h-0.291v-0.304h-0.582v-0.304h-0.291v-0.609h-0.459v0.913h-0.291v0.913h-0.291v0.304h-0.291v0.304h-0.582v0.304h-0.399l0.13-0.815 0.143-0.746 0.427-0.745 0.43-0.601 0.716-0.749 0.713-0.447 0.705-0.295h0.847l0.707 0.148 0.85 0.445 0.858 0.897 0.571 0.897z"></path>
<path fill="#061e7d" d="M13.202 17.127h1.98v-0.274h1.132v0.274h0.283v0.274h0.283v0.822h-0.566v0.274h-1.131v-0.274h-0.566v-0.274h-1.132v-0.274h-0.566l-0.424-0.822h0.707v0.274z"></path>
<path fill="#061e7d" d="M13.956 14.247h0.804v0.268h0.268v0.804h-0.268v0.268h-0.804v-0.268h-0.268v-0.804h0.268v-0.268z"></path>
<path fill="#061e7d" d="M17.171 14.247h0.804v0.268h0.268v0.804h-0.268v0.268h-0.804v-0.268h-0.268v-0.804h0.268v-0.268z"></path>
</svg>
