<!-- Generated by IcoMoon.io -->
<svg version="1.1" xmlns="http://www.w3.org/2000/svg" width="32" height="32" viewBox="0 0 32 32">
<title>tarrifs</title>
<path fill="none" stroke="#061e7d" stroke-linejoin="miter" stroke-linecap="butt" stroke-miterlimit="4" stroke-width="1.3617" d="M27.915 14.979c0 7.52-6.097 13.617-13.617 13.617s-13.617-6.097-13.617-13.617c0-7.52 6.097-13.617 13.617-13.617s13.617 6.097 13.617 13.617z"></path>
<path fill="none" stroke="#061e7d" stroke-linejoin="miter" stroke-linecap="butt" stroke-miterlimit="4" stroke-width="1.3617" d="M22.439 14.979c0 3.754-0.977 7.12-2.521 9.527-1.549 2.415-3.605 3.785-5.773 3.785s-4.224-1.371-5.773-3.785c-1.544-2.407-2.521-5.774-2.521-9.527s0.977-7.12 2.521-9.527c1.549-2.415 3.605-3.785 5.773-3.785s4.224 1.371 5.773 3.785c1.544 2.407 2.521 5.774 2.521 9.527z"></path>
<path fill="#061e7d" d="M2.738 7.373h23.12v1.217h-23.12v-1.217z"></path>
<path fill="#061e7d" d="M0.913 14.37h26.77v1.217h-26.77v-1.217z"></path>
<path fill="#061e7d" d="M2.434 21.671h23.424v1.217h-23.424v-1.217z"></path>
<path fill="#061e7d" d="M14.642 2.129l0.133 25.628-1.217 0.006-0.133-25.628 1.217-0.006z"></path>
<path fill="none" stroke="#061e7d" stroke-linejoin="miter" stroke-linecap="butt" stroke-miterlimit="4" stroke-width="1.0213" d="M24.876 25.45l2.124-0.91 1.76 4.11-2.124 0.91-1.76-4.11z"></path>
<path fill="#e2e5e8" stroke="#061e7d" stroke-linejoin="miter" stroke-linecap="butt" stroke-miterlimit="4" stroke-width="1.3617" d="M21.815 26.025l0.767-9.002 6.757 6.051-0.266 0.021-1.073 0.282-0.546 0.585-3.526 1.738-1.035-0.072-1.078 0.397z"></path>
</svg>
