<!-- Generated by IcoMoon.io -->
<svg version="1.1" xmlns="http://www.w3.org/2000/svg" width="30" height="32" viewBox="0 0 30 32">
<title>client</title>
<path fill="#2b4fa2" d="M10.419 17.86h-0.744v-0.744h-0.744v-0.744h-0.744v-1.488h-0.744v-10.419h0.744v-1.488h0.744v-0.744h0.744v-0.744h0.744v-0.744h1.488v-0.744h5.954v0.744h1.488v0.744h0.744v0.744h0.744v0.744h0.744v1.488h0.744v10.419h-0.744v1.488h-0.744v0.744h-0.744v0.744h-0.744v3.721h1.488v0.744h1.488v0.744h1.488v0.744h1.488v0.744h1.488v0.744h0.744v0.744h0.744v0.744h0.744v1.488h0.744v3.721h-29.767v-3.721h0.744v-1.488h0.744v-0.744h0.744v-0.744h0.744v-0.744h1.488v-0.744h1.488v-0.744h1.488v-0.744h1.488v-0.744h1.488v-3.721z"></path>
</svg>
