<!-- Generated by IcoMoon.io -->
<svg version="1.1" xmlns="http://www.w3.org/2000/svg" width="32" height="32" viewBox="0 0 32 32">
<title>Logo</title>
<path fill="#104eab" stroke="#787777" stroke-linejoin="miter" stroke-linecap="butt" stroke-miterlimit="4" stroke-width="0.4" d="M26.402 14.013l0.044-0.025-16.173-8.569 2.393-0.977 18.043 9.714-6.995 3.682-2.22-1.087 4.907-2.739z"></path>
<path fill="#104eab" stroke="#787777" stroke-linejoin="miter" stroke-linecap="butt" stroke-miterlimit="4" stroke-width="0.4" d="M25.791 21.184l0.053-0.025-22.062-10.44 2.215-1.389 24.548 11.829-15.565 7.417v-2.283l10.811-5.109z"></path>
<path fill="#104eab" stroke="#787777" stroke-linejoin="miter" stroke-linecap="butt" stroke-miterlimit="4" stroke-width="0.4" d="M7.745 23.529l9.274-4.341 2.043 1.167-11.317 5.79v-2.616z"></path>
<path fill="#b8c2ca" stroke="#787777" stroke-linejoin="miter" stroke-linecap="butt" stroke-miterlimit="4" stroke-width="0.4" d="M5.553 13.738v15.812l-1.861-1.001v-17.809l22.028 10.426-2.606 1.253-17.561-8.727v0.047z"></path>
<path fill="#b8c2ca" stroke="#787777" stroke-linejoin="miter" stroke-linecap="butt" stroke-miterlimit="4" stroke-width="0.4" d="M12.338 8.656v12.716l-2.101 0.95v-16.885l16.15 8.553-1.862 1.028-12.187-6.41v0.048z"></path>
<path fill="#061e7d" d="M12.338 8.6l2.732 1.424v10.052l-2.702 1.284-0.030-12.761z"></path>
<path fill="#061e7d" stroke="#787777" stroke-linejoin="miter" stroke-linecap="butt" stroke-miterlimit="4" stroke-width="0.4" d="M30.589 23.215l-17.891 8.683v-5.969l2.281-1.17v3.88l15.61-7.428v2.004z"></path>
<path fill="#b8c2ca" stroke="#787777" stroke-linejoin="miter" stroke-linecap="butt" stroke-miterlimit="4" stroke-width="0.4" d="M10.777 31.476v-4.569l1.861-0.92v5.949l-1.861-0.46z"></path>
<path fill="#061e7d" stroke="#787777" stroke-linejoin="miter" stroke-linecap="butt" stroke-miterlimit="4" stroke-width="0.4" d="M7.729 26.189l11.273-5.745 2.188 1.086-15.577 7.994v-15.739l2.071 1.004v11.423l0.044-0.023z"></path>
<path fill="#061e7d" stroke="#787777" stroke-linejoin="miter" stroke-linecap="butt" stroke-miterlimit="4" stroke-width="0.4" d="M26.026 18.928l-2.219-1.086 6.904-3.638 0.117 2.366-4.802 2.358z"></path>
</svg>
