<!-- Generated by IcoMoon.io -->
<svg version="1.1" xmlns="http://www.w3.org/2000/svg" width="30" height="32" viewBox="0 0 30 32">
<title>menu</title>
<path fill="#00a5ea" d="M3.975 0h22.46c2.195 0 3.975 1.78 3.975 3.975v24.050c0 2.195-1.78 3.975-3.975 3.975h-22.46c-2.195 0-3.975-1.78-3.975-3.975v-24.050c0-2.195 1.78-3.975 3.975-3.975z"></path>
<path fill="#2c4da2" d="M4.571 10.137h21.068c0.549 0 0.994 0.445 0.994 0.994s-0.445 0.994-0.994 0.994h-21.068c-0.549 0-0.994-0.445-0.994-0.994s0.445-0.994 0.994-0.994z"></path>
<path fill="#2c4da2" d="M4.571 15.106h20.273c0.549 0 0.994 0.445 0.994 0.994s-0.445 0.994-0.994 0.994h-20.273c-0.549 0-0.994-0.445-0.994-0.994s0.445-0.994 0.994-0.994z"></path>
<path fill="#2c4da2" d="M4.571 20.075h21.068c0.549 0 0.994 0.445 0.994 0.994s-0.445 0.994-0.994 0.994h-21.068c-0.549 0-0.994-0.445-0.994-0.994s0.445-0.994 0.994-0.994z"></path>
</svg>
